<svg fill="#000000" xmlns="http://www.w3.org/2000/svg" viewBox="0 0 24 24" width="24px" height="24px"><path d="M 11.96875 2 C 8.054688 2 4.964844 4 4.1875 6.5 L 7.96875 6 C 3.96875 7 1.96875 8 1.96875 8 L 1.96875 10.90625 L 2.875 11.8125 L 0.96875 15 L 3.53125 13.40625 L 4.0625 15.5 L 5.65625 17.09375 L 10.65625 15.84375 L 11.5625 14 L 12.34375 14 L 13.28125 15.84375 L 18.25 17.09375 L 19.84375 15.5 L 20.75 11.9375 C 20.765625 11.945313 20.84375 12 20.84375 12 L 21.96875 10.90625 L 21.96875 8 C 21.96875 8 19.96875 7 15.96875 6 L 19.71875 6.5 C 18.941406 4 15.882813 2 11.96875 2 Z M 9.96875 4 L 13.96875 4 L 13.96875 6 L 12.96875 6 L 12.96875 9 L 10.96875 9 L 10.96875 6 L 9.96875 6 Z M 11.96875 10 C 12.304688 10 12.613281 10.015625 12.9375 10.03125 L 11.96875 12 L 14.65625 10.1875 C 16.25 10.410156 17.625 10.800781 18.6875 11.15625 L 18.84375 11.3125 L 18.0625 14.5 L 17.65625 14.90625 L 14.65625 14.15625 L 13.5625 12 L 10.34375 12 L 9.28125 14.15625 L 6.25 14.90625 L 5.84375 14.5 L 5.3125 12.28125 L 8.4375 10.3125 C 8.5625 10.289063 8.683594 10.269531 8.8125 10.25 L 7.96875 12 Z M 8.46875 12 C 8.191406 12 7.96875 12.449219 7.96875 13 C 7.96875 13.550781 8.191406 14 8.46875 14 C 8.746094 14 8.96875 13.550781 8.96875 13 C 8.96875 12.449219 8.746094 12 8.46875 12 Z M 15.46875 12 C 15.191406 12 14.96875 12.449219 14.96875 13 C 14.96875 13.550781 15.191406 14 15.46875 14 C 15.746094 14 15.96875 13.550781 15.96875 13 C 15.96875 12.449219 15.746094 12 15.46875 12 Z M 10.96875 16 L 5.96875 18 L 3.96875 18 C 3.96875 18 5.203125 21 7.96875 21 C 8.261719 21 8.558594 20.914063 8.875 20.8125 C 9.570313 21.484375 10.648438 22 11.96875 22 C 13.289063 22 14.335938 21.484375 15.03125 20.8125 C 15.347656 20.914063 15.675781 21 15.96875 21 C 18.734375 21 19.96875 18 19.96875 18 L 17.96875 18 L 12.96875 16 C 12.96875 16 12.96875 17 11.96875 17 C 10.96875 17 10.96875 16 10.96875 16 Z M 11.96875 18 C 11.96875 18.5 12.449219 19.144531 13.125 19.71875 C 12.824219 19.871094 12.460938 20 11.96875 20 C 11.476563 20 11.078125 19.898438 10.78125 19.75 C 11.464844 19.171875 11.96875 18.5 11.96875 18 Z"/></svg>